<?xml version="1.0" encoding="UTF-8" standalone="no"?>
<!DOCTYPE svg PUBLIC "-//W3C//DTD SVG 1.1//EN"
 "http://www.w3.org/Graphics/SVG/1.1/DTD/svg11.dtd">
<!-- Generated by graphviz version 2.43.20190912.0211 (20190912.0211)
 -->
<!-- Title: i2c_top Pages: 1 -->
<svg width="721pt" height="397pt"
 viewBox="0.00 0.00 720.64 397.00" xmlns="http://www.w3.org/2000/svg" xmlns:xlink="http://www.w3.org/1999/xlink">
<g id="graph0" class="graph" transform="scale(1 1) rotate(0) translate(4 393)">
<title>i2c_top</title>
<polygon fill="white" stroke="transparent" points="-4,4 -4,-393 716.64,-393 716.64,4 -4,4"/>
<text text-anchor="middle" x="356.32" y="-7.8" font-family="Times,serif" font-size="14.00">i2c_top</text>
<!-- n1 -->
<g id="node1" class="node">
<title>n1</title>
<polygon fill="none" stroke="black" points="395.51,-383 326.63,-365 395.51,-347 464.38,-365 395.51,-383"/>
<text text-anchor="middle" x="395.51" y="-361.3" font-family="Times,serif" font-size="14.00">ack_err_m</text>
</g>
<!-- c19 -->
<g id="node16" class="node">
<title>c19</title>
<polygon fill="none" stroke="black" points="500.44,-207 500.44,-253 596.44,-253 596.44,-207 500.44,-207"/>
<text text-anchor="middle" x="513.44" y="-237.8" font-family="Times,serif" font-size="14.00">A</text>
<polyline fill="none" stroke="black" points="500.44,-230 526.44,-230 "/>
<text text-anchor="middle" x="513.44" y="-214.8" font-family="Times,serif" font-size="14.00">B</text>
<polyline fill="none" stroke="black" points="526.44,-207 526.44,-253 "/>
<text text-anchor="middle" x="548.44" y="-233.8" font-family="Times,serif" font-size="14.00">$168</text>
<text text-anchor="middle" x="548.44" y="-218.8" font-family="Times,serif" font-size="14.00">$or</text>
<polyline fill="none" stroke="black" points="570.44,-207 570.44,-253 "/>
<text text-anchor="middle" x="583.44" y="-226.3" font-family="Times,serif" font-size="14.00">Y</text>
</g>
<!-- n1&#45;&gt;c19 -->
<g id="edge2" class="edge">
<title>n1:e&#45;&gt;c19:w</title>
<path fill="none" stroke="black" d="M464.44,-365C517.4,-365 453.77,-258.69 490.34,-243.74"/>
<polygon fill="black" stroke="black" points="491.18,-247.14 500.44,-242 490,-240.25 491.18,-247.14"/>
</g>
<!-- n2 -->
<g id="node2" class="node">
<title>n2</title>
<polygon fill="none" stroke="black" points="395.51,-113 332.16,-95 395.51,-77 458.85,-95 395.51,-113"/>
<text text-anchor="middle" x="395.51" y="-91.3" font-family="Times,serif" font-size="14.00">ack_err_s</text>
</g>
<!-- n2&#45;&gt;c19 -->
<g id="edge12" class="edge">
<title>n2:e&#45;&gt;c19:w</title>
<path fill="none" stroke="black" d="M459.51,-95C513.07,-95 452.62,-201.31 490.16,-216.26"/>
<polygon fill="black" stroke="black" points="490,-219.78 500.44,-218 491.17,-212.88 490,-219.78"/>
</g>
<!-- n3 -->
<g id="node3" class="node">
<title>n3</title>
<polygon fill="none" stroke="black" points="395.51,-167 366.18,-149 395.51,-131 424.83,-149 395.51,-167"/>
<text text-anchor="middle" x="395.51" y="-145.3" font-family="Times,serif" font-size="14.00">scl</text>
</g>
<!-- n4 -->
<g id="node4" class="node">
<title>n4</title>
<polygon fill="none" stroke="black" points="395.51,-59 363.17,-41 395.51,-23 427.85,-41 395.51,-59"/>
<text text-anchor="middle" x="395.51" y="-37.3" font-family="Times,serif" font-size="14.00">sda</text>
</g>
<!-- n5 -->
<g id="node5" class="node">
<title>n5</title>
<polygon fill="none" stroke="black" points="425.51,-195.54 425.51,-210.46 407.93,-221 383.08,-221 365.5,-210.46 365.5,-195.54 383.08,-185 407.93,-185 425.51,-195.54"/>
<text text-anchor="middle" x="395.51" y="-199.3" font-family="Times,serif" font-size="14.00">done</text>
</g>
<!-- n6 -->
<g id="node6" class="node">
<title>n6</title>
<polygon fill="none" stroke="black" points="712.74,-222.54 712.74,-237.46 689.19,-248 655.89,-248 632.34,-237.46 632.34,-222.54 655.89,-212 689.19,-212 712.74,-222.54"/>
<text text-anchor="middle" x="672.54" y="-226.3" font-family="Times,serif" font-size="14.00">ack_err</text>
</g>
<!-- n7 -->
<g id="node7" class="node">
<title>n7</title>
<polygon fill="none" stroke="black" points="425.1,-303.54 425.1,-318.46 407.77,-329 383.25,-329 365.91,-318.46 365.91,-303.54 383.25,-293 407.77,-293 425.1,-303.54"/>
<text text-anchor="middle" x="395.51" y="-307.3" font-family="Times,serif" font-size="14.00">busy</text>
</g>
<!-- n8 -->
<g id="node8" class="node">
<title>n8</title>
<polygon fill="none" stroke="black" points="424.19,-249.54 424.19,-264.46 407.39,-275 383.62,-275 366.82,-264.46 366.82,-249.54 383.62,-239 407.39,-239 424.19,-249.54"/>
<text text-anchor="middle" x="395.51" y="-253.3" font-family="Times,serif" font-size="14.00">dout</text>
</g>
<!-- n9 -->
<g id="node9" class="node">
<title>n9</title>
<polygon fill="none" stroke="black" points="64.29,-309.54 64.29,-324.46 48.47,-335 26.1,-335 10.29,-324.46 10.29,-309.54 26.1,-299 48.47,-299 64.29,-309.54"/>
<text text-anchor="middle" x="37.29" y="-313.3" font-family="Times,serif" font-size="14.00">din</text>
</g>
<!-- c21 -->
<g id="node18" class="node">
<title>c21</title>
<polygon fill="none" stroke="black" points="110.57,-187 110.57,-325 290.57,-325 290.57,-187 110.57,-187"/>
<text text-anchor="middle" x="133.57" y="-309.8" font-family="Times,serif" font-size="14.00">addr</text>
<polyline fill="none" stroke="black" points="110.57,-302 156.57,-302 "/>
<text text-anchor="middle" x="133.57" y="-286.8" font-family="Times,serif" font-size="14.00">clk</text>
<polyline fill="none" stroke="black" points="110.57,-279 156.57,-279 "/>
<text text-anchor="middle" x="133.57" y="-263.8" font-family="Times,serif" font-size="14.00">din</text>
<polyline fill="none" stroke="black" points="110.57,-256 156.57,-256 "/>
<text text-anchor="middle" x="133.57" y="-240.8" font-family="Times,serif" font-size="14.00">newd</text>
<polyline fill="none" stroke="black" points="110.57,-233 156.57,-233 "/>
<text text-anchor="middle" x="133.57" y="-217.8" font-family="Times,serif" font-size="14.00">read</text>
<polyline fill="none" stroke="black" points="110.57,-210 156.57,-210 "/>
<text text-anchor="middle" x="133.57" y="-194.8" font-family="Times,serif" font-size="14.00">reset</text>
<polyline fill="none" stroke="black" points="156.57,-187 156.57,-325 "/>
<text text-anchor="middle" x="195.07" y="-259.8" font-family="Times,serif" font-size="14.00">MASTER</text>
<text text-anchor="middle" x="195.07" y="-244.8" font-family="Times,serif" font-size="14.00">i2c_master</text>
<polyline fill="none" stroke="black" points="233.57,-187 233.57,-325 "/>
<text text-anchor="middle" x="262.07" y="-309.8" font-family="Times,serif" font-size="14.00">ack_err</text>
<polyline fill="none" stroke="black" points="233.57,-302 290.57,-302 "/>
<text text-anchor="middle" x="262.07" y="-286.8" font-family="Times,serif" font-size="14.00">busy</text>
<polyline fill="none" stroke="black" points="233.57,-279 290.57,-279 "/>
<text text-anchor="middle" x="262.07" y="-263.8" font-family="Times,serif" font-size="14.00">done</text>
<polyline fill="none" stroke="black" points="233.57,-256 290.57,-256 "/>
<text text-anchor="middle" x="262.07" y="-240.8" font-family="Times,serif" font-size="14.00">dout</text>
<polyline fill="none" stroke="black" points="233.57,-233 290.57,-233 "/>
<text text-anchor="middle" x="262.07" y="-217.8" font-family="Times,serif" font-size="14.00">scl</text>
<polyline fill="none" stroke="black" points="233.57,-210 290.57,-210 "/>
<text text-anchor="middle" x="262.07" y="-194.8" font-family="Times,serif" font-size="14.00">sda</text>
</g>
<!-- n9&#45;&gt;c21 -->
<g id="edge22" class="edge">
<title>n9:e&#45;&gt;c21:w</title>
<path fill="none" stroke="black" stroke-width="3" d="M65.29,-317C90.77,-317 84,-280.81 100.41,-270.63"/>
<polygon fill="black" stroke="black" stroke-width="3" points="101.77,-273.9 110.57,-268 100.01,-267.12 101.77,-273.9"/>
</g>
<!-- n10 -->
<g id="node10" class="node">
<title>n10</title>
<polygon fill="none" stroke="black" points="65.97,-363.54 65.97,-378.46 49.17,-389 25.4,-389 8.6,-378.46 8.6,-363.54 25.4,-353 49.17,-353 65.97,-363.54"/>
<text text-anchor="middle" x="37.29" y="-367.3" font-family="Times,serif" font-size="14.00">addr</text>
</g>
<!-- n10&#45;&gt;c21 -->
<g id="edge3" class="edge">
<title>n10:e&#45;&gt;c21:w</title>
<path fill="none" stroke="black" stroke-width="3" d="M67.29,-371C94.87,-371 83.24,-328.14 100.41,-316.75"/>
<polygon fill="black" stroke="black" stroke-width="3" points="101.83,-319.99 110.57,-314 100,-313.23 101.83,-319.99"/>
</g>
<!-- n11 -->
<g id="node11" class="node">
<title>n11</title>
<polygon fill="none" stroke="black" points="74.36,-39.54 74.36,-54.46 52.64,-65 21.93,-65 0.21,-54.46 0.21,-39.54 21.93,-29 52.64,-29 74.36,-39.54"/>
<text text-anchor="middle" x="37.29" y="-43.3" font-family="Times,serif" font-size="14.00">stretch</text>
</g>
<!-- c20 -->
<g id="node17" class="node">
<title>c20</title>
<polygon fill="none" stroke="black" points="111.57,-54 111.57,-146 289.57,-146 289.57,-54 111.57,-54"/>
<text text-anchor="middle" x="138.07" y="-127.3" font-family="Times,serif" font-size="14.00">clk</text>
<polyline fill="none" stroke="black" points="111.57,-116 164.57,-116 "/>
<text text-anchor="middle" x="138.07" y="-96.8" font-family="Times,serif" font-size="14.00">reset</text>
<polyline fill="none" stroke="black" points="111.57,-85 164.57,-85 "/>
<text text-anchor="middle" x="138.07" y="-65.8" font-family="Times,serif" font-size="14.00">stretch</text>
<polyline fill="none" stroke="black" points="164.57,-54 164.57,-146 "/>
<text text-anchor="middle" x="198.57" y="-103.8" font-family="Times,serif" font-size="14.00">SLAVE</text>
<text text-anchor="middle" x="198.57" y="-88.8" font-family="Times,serif" font-size="14.00">i2c_slave</text>
<polyline fill="none" stroke="black" points="232.57,-54 232.57,-146 "/>
<text text-anchor="middle" x="261.07" y="-130.8" font-family="Times,serif" font-size="14.00">ack_err</text>
<polyline fill="none" stroke="black" points="232.57,-123 289.57,-123 "/>
<text text-anchor="middle" x="261.07" y="-107.8" font-family="Times,serif" font-size="14.00">done</text>
<polyline fill="none" stroke="black" points="232.57,-100 289.57,-100 "/>
<text text-anchor="middle" x="261.07" y="-84.8" font-family="Times,serif" font-size="14.00">scl</text>
<polyline fill="none" stroke="black" points="232.57,-77 289.57,-77 "/>
<text text-anchor="middle" x="261.07" y="-61.8" font-family="Times,serif" font-size="14.00">sda</text>
</g>
<!-- n11&#45;&gt;c20 -->
<g id="edge4" class="edge">
<title>n11:e&#45;&gt;c20:w</title>
<path fill="none" stroke="black" d="M74.57,-47C89.22,-47 91.51,-60.43 100.75,-66.3"/>
<polygon fill="black" stroke="black" points="100,-69.73 110.57,-69 101.85,-62.98 100,-69.73"/>
</g>
<!-- n12 -->
<g id="node12" class="node">
<title>n12</title>
<polygon fill="none" stroke="black" points="65.57,-201.54 65.57,-216.46 49,-227 25.57,-227 9.01,-216.46 9.01,-201.54 25.57,-191 49,-191 65.57,-201.54"/>
<text text-anchor="middle" x="37.29" y="-205.3" font-family="Times,serif" font-size="14.00">read</text>
</g>
<!-- n12&#45;&gt;c21 -->
<g id="edge5" class="edge">
<title>n12:e&#45;&gt;c21:w</title>
<path fill="none" stroke="black" d="M66.29,-209C82.69,-209 88.17,-216.77 100.3,-219.81"/>
<polygon fill="black" stroke="black" points="100.23,-223.32 110.57,-221 101.04,-216.37 100.23,-223.32"/>
</g>
<!-- n13 -->
<g id="node13" class="node">
<title>n13</title>
<polygon fill="none" stroke="black" points="69.51,-255.54 69.51,-270.46 50.63,-281 23.94,-281 5.06,-270.46 5.06,-255.54 23.94,-245 50.63,-245 69.51,-255.54"/>
<text text-anchor="middle" x="37.29" y="-259.3" font-family="Times,serif" font-size="14.00">newd</text>
</g>
<!-- n13&#45;&gt;c21 -->
<g id="edge6" class="edge">
<title>n13:e&#45;&gt;c21:w</title>
<path fill="none" stroke="black" d="M70.29,-263C86.06,-263 89.7,-250.93 100.55,-246.03"/>
<polygon fill="black" stroke="black" points="101.47,-249.42 110.57,-244 100.07,-242.56 101.47,-249.42"/>
</g>
<!-- n14 -->
<g id="node14" class="node">
<title>n14</title>
<polygon fill="none" stroke="black" points="66.88,-93.54 66.88,-108.46 49.54,-119 25.03,-119 7.69,-108.46 7.69,-93.54 25.03,-83 49.54,-83 66.88,-93.54"/>
<text text-anchor="middle" x="37.29" y="-97.3" font-family="Times,serif" font-size="14.00">reset</text>
</g>
<!-- n14&#45;&gt;c20 -->
<g id="edge7" class="edge">
<title>n14:e&#45;&gt;c20:w</title>
<path fill="none" stroke="black" d="M68.29,-101C83.11,-101 89.17,-101 100.29,-101"/>
<polygon fill="black" stroke="black" points="100.57,-104.5 110.57,-101 100.57,-97.5 100.57,-104.5"/>
</g>
<!-- n14&#45;&gt;c21 -->
<g id="edge8" class="edge">
<title>n14:e&#45;&gt;c21:w</title>
<path fill="none" stroke="black" d="M68.29,-101C111.27,-101 71.71,-182.04 100.51,-195.97"/>
<polygon fill="black" stroke="black" points="100.08,-199.46 110.57,-198 101.46,-192.59 100.08,-199.46"/>
</g>
<!-- n15 -->
<g id="node15" class="node">
<title>n15</title>
<polygon fill="none" stroke="black" points="64.29,-147.54 64.29,-162.46 48.47,-173 26.1,-173 10.29,-162.46 10.29,-147.54 26.1,-137 48.47,-137 64.29,-147.54"/>
<text text-anchor="middle" x="37.29" y="-151.3" font-family="Times,serif" font-size="14.00">clk</text>
</g>
<!-- n15&#45;&gt;c20 -->
<g id="edge9" class="edge">
<title>n15:e&#45;&gt;c20:w</title>
<path fill="none" stroke="black" d="M65.29,-155C84.15,-155 87.2,-138.54 100.63,-132.88"/>
<polygon fill="black" stroke="black" points="101.4,-136.3 110.57,-131 100.09,-129.42 101.4,-136.3"/>
</g>
<!-- n15&#45;&gt;c21 -->
<g id="edge10" class="edge">
<title>n15:e&#45;&gt;c21:w</title>
<path fill="none" stroke="black" d="M65.29,-155C125.14,-155 56.27,-275.03 100.54,-289.56"/>
<polygon fill="black" stroke="black" points="100.18,-293.05 110.57,-291 101.17,-286.12 100.18,-293.05"/>
</g>
<!-- c19&#45;&gt;n6 -->
<g id="edge19" class="edge">
<title>c19:e&#45;&gt;n6:w</title>
<path fill="none" stroke="black" d="M596.44,-230C608.44,-230 613.69,-230 622.32,-230"/>
<polygon fill="black" stroke="black" points="622.44,-233.5 632.44,-230 622.44,-226.5 622.44,-233.5"/>
</g>
<!-- c20&#45;&gt;n2 -->
<g id="edge11" class="edge">
<title>c20:e&#45;&gt;n2:w</title>
<path fill="none" stroke="black" d="M290.57,-135C311.83,-135 308.38,-107.05 321.53,-97.88"/>
<polygon fill="black" stroke="black" points="322.87,-101.13 331.51,-95 320.93,-94.41 322.87,-101.13"/>
</g>
<!-- c20&#45;&gt;n3 -->
<g id="edge13" class="edge">
<title>c20:e&#45;&gt;n3:w</title>
<path fill="none" stroke="black" d="M290.57,-88C312.58,-88 309.48,-108.13 326.57,-122 339.86,-132.78 343.36,-143.87 355.5,-147.65"/>
<polygon fill="black" stroke="black" points="355.13,-151.13 365.51,-149 356.07,-144.19 355.13,-151.13"/>
</g>
<!-- c20&#45;&gt;n4 -->
<g id="edge15" class="edge">
<title>c20:e&#45;&gt;n4:w</title>
<path fill="none" stroke="black" d="M290.57,-65C320.59,-65 327.46,-45.96 352.42,-41.8"/>
<polygon fill="black" stroke="black" points="352.81,-45.28 362.51,-41 352.26,-38.3 352.81,-45.28"/>
</g>
<!-- c20&#45;&gt;n5 -->
<g id="edge17" class="edge">
<title>c20:e&#45;&gt;n5:w</title>
<path fill="none" stroke="black" d="M290.57,-112C323.21,-112 304.75,-151.73 326.57,-176 337.81,-188.5 342.17,-198.51 354.51,-201.83"/>
<polygon fill="black" stroke="black" points="354.17,-205.31 364.51,-203 354.98,-198.36 354.17,-205.31"/>
</g>
<!-- c21&#45;&gt;n1 -->
<g id="edge1" class="edge">
<title>c21:e&#45;&gt;n1:w</title>
<path fill="none" stroke="black" d="M290.57,-314C314.2,-314 303.57,-350.98 317.03,-361.96"/>
<polygon fill="black" stroke="black" points="315.98,-365.3 326.57,-365 318.1,-358.63 315.98,-365.3"/>
</g>
<!-- c21&#45;&gt;n3 -->
<g id="edge14" class="edge">
<title>c21:e&#45;&gt;n3:w</title>
<path fill="none" stroke="black" d="M290.57,-221C316.18,-221 307.85,-193.48 326.57,-176 339.08,-164.32 343.06,-153.8 355.41,-150.26"/>
<polygon fill="black" stroke="black" points="356.02,-153.71 365.51,-149 355.15,-146.77 356.02,-153.71"/>
</g>
<!-- c21&#45;&gt;n4 -->
<g id="edge16" class="edge">
<title>c21:e&#45;&gt;n4:w</title>
<path fill="none" stroke="black" d="M290.57,-198C350.52,-198 292.8,-117.54 326.57,-68 335.62,-54.72 340.44,-45.33 352.39,-42.17"/>
<polygon fill="black" stroke="black" points="352.97,-45.62 362.51,-41 352.17,-38.67 352.97,-45.62"/>
</g>
<!-- c21&#45;&gt;n5 -->
<g id="edge18" class="edge">
<title>c21:e&#45;&gt;n5:w</title>
<path fill="none" stroke="black" d="M290.57,-268C313.83,-268 309.01,-245.26 326.57,-230 339.14,-219.08 342.64,-208.25 354.32,-204.44"/>
<polygon fill="black" stroke="black" points="355.09,-207.86 364.51,-203 354.12,-200.93 355.09,-207.86"/>
</g>
<!-- c21&#45;&gt;n7 -->
<g id="edge20" class="edge">
<title>c21:e&#45;&gt;n7:w</title>
<path fill="none" stroke="black" d="M290.57,-291C320.89,-291 328.85,-306.86 354.27,-310.33"/>
<polygon fill="black" stroke="black" points="354.3,-313.84 364.51,-311 354.76,-306.86 354.3,-313.84"/>
</g>
<!-- c21&#45;&gt;n8 -->
<g id="edge21" class="edge">
<title>c21:e&#45;&gt;n8:w</title>
<path fill="none" stroke="black" stroke-width="3" d="M290.57,-244C320.68,-244 329.78,-254.31 355.3,-256.57"/>
<polygon fill="black" stroke="black" stroke-width="3" points="355.37,-260.07 365.51,-257 355.66,-253.08 355.37,-260.07"/>
</g>
</g>
</svg>
